<svg preserveAspectRatio="none" width="100%" height="100%" overflow="visible" style="display: block;" viewBox="0 0 22 30" fill="none" xmlns="http://www.w3.org/2000/svg">
<g id="Group 3">
<path id="Shape" fill-rule="evenodd" clip-rule="evenodd" d="M7.21994 20.9251C7.50774 21.0029 7.81358 20.8764 7.96507 20.6196C8.80219 19.203 9.34224 17.3362 9.48497 15.3636C9.8175 10.7972 8.00205 7.06704 5.35407 6.87183C5.28255 6.86629 5.21073 6.86383 5.13921 6.86383C2.55449 6.86383 0.361284 10.2186 0.0379271 14.6671C-0.105108 16.6392 0.159263 18.566 0.783055 20.0904C0.895809 20.367 1.18017 20.5362 1.47684 20.5011C2.3867 20.3946 3.37511 20.3773 4.36719 20.45C5.36538 20.5233 6.32506 20.6834 7.21994 20.9251ZM4.46711 19.1109C4.03434 19.0792 3.59881 19.0629 3.17246 19.0629C2.39286 19.0629 1.65904 18.5973 1.51951 17.8303C1.34587 16.8757 1.29335 15.8308 1.37076 14.7644C1.65561 10.8418 3.55083 8.20652 5.14163 8.20652C5.18106 8.20652 5.21988 8.20775 5.2593 8.21083C7.09889 8.34692 8.42655 11.5774 8.15852 15.2656C8.11468 15.8693 8.03039 16.4602 7.90924 17.0259C7.58676 18.5319 6.003 19.2244 4.46711 19.1109Z" fill="var(--fill-0, white)"/>
<path id="Shape_2" fill-rule="evenodd" clip-rule="evenodd" d="M1.01306 24.2262C1.11698 27.4212 2.7139 29.9241 4.64854 29.9241L4.72342 29.9235C6.69932 29.8585 8.1636 27.254 8.05846 23.994C8.04838 23.6969 8.02454 23.3939 7.98695 23.0931C7.94437 22.7488 7.64616 22.4937 7.29937 22.5051L1.67293 22.6897C1.32651 22.7011 1.04585 22.9746 1.02559 23.3207C1.00756 23.6175 1.00298 23.922 1.01306 24.2262ZM2.34803 24.1835C2.34395 24.0879 2.42018 24.0089 2.51583 24.0057L6.59763 23.8716C6.66627 23.8694 6.72395 23.9223 6.72669 23.9909C6.72732 24.0067 6.72795 24.0226 6.72863 24.0385C6.81421 26.6731 5.71944 28.5476 4.68305 28.5811L4.65096 28.5818C3.62954 28.5818 2.43208 26.7753 2.34803 24.1835Z" fill="var(--fill-0, white)"/>
<path id="Shape_3" fill-rule="evenodd" clip-rule="evenodd" d="M13.5128 13.7564C13.6645 14.0131 13.9701 14.1392 14.2579 14.0616C15.151 13.8195 16.1113 13.6597 17.1107 13.5862C18.1009 13.5132 19.089 13.531 20.0017 13.6379C20.2977 13.6725 20.5816 13.5028 20.6942 13.2268C21.3177 11.7034 21.5821 9.7772 21.4393 7.80328C21.1166 3.35482 18.9234 0 16.3375 0C16.2665 0 16.1953 0.00246316 16.1232 0.00769737C13.4752 0.20321 11.6601 3.93366 11.9923 8.50036C12.1356 10.4724 12.6754 12.3389 13.5128 13.7564ZM16.2227 1.34732C16.2615 1.34424 16.3004 1.34301 16.3392 1.34301C17.9318 1.34301 19.827 3.97859 20.1119 7.90147C20.1558 8.50623 20.1577 9.10401 20.1195 9.68223C20.0178 11.2194 18.5513 12.1344 17.0149 12.2477C15.479 12.3606 13.8949 11.6687 13.5726 10.1628C13.4516 9.59699 13.3674 9.00615 13.3235 8.40242C13.0555 4.71415 14.3825 1.4831 16.2227 1.34732Z" fill="var(--fill-0, white)"/>
<path id="Shape_4" fill-rule="evenodd" clip-rule="evenodd" d="M16.7494 23.06L16.8245 23.0612C18.7592 23.0612 20.3567 20.5577 20.4609 17.3615C20.4698 17.0656 20.4664 16.7617 20.449 16.4593C20.4291 16.1124 20.1478 15.8379 19.8005 15.8264L14.1734 15.6414C13.8266 15.63 13.5284 15.885 13.4858 16.2293C13.4489 16.5264 13.425 16.8294 13.4155 17.1302C13.3098 20.3899 14.7741 22.9944 16.7494 23.06ZM14.7508 17.1756C14.7534 17.0806 14.8338 17.0072 14.9288 17.0103L18.9652 17.1435C19.0598 17.1466 19.1348 17.2247 19.1317 17.3194C19.0477 19.9128 17.8502 21.7192 16.8276 21.7192L16.7964 21.7186C15.7603 21.6844 14.665 19.8099 14.7508 17.1756Z" fill="var(--fill-0, white)"/>
</g>
</svg>
