<svg width="48" height="48" viewBox="0 0 48 48" fill="none" xmlns="http://www.w3.org/2000/svg">
<g clip-path="url(#clip0_135_16817)">
<path d="M24 16C26.21 16 28 14.21 28 12C28 9.79 26.21 8 24 8C21.79 8 20 9.79 20 12C20 14.21 21.79 16 24 16ZM24 20C21.79 20 20 21.79 20 24C20 26.21 21.79 28 24 28C26.21 28 28 26.21 28 24C28 21.79 26.21 20 24 20ZM24 32C21.79 32 20 33.79 20 36C20 38.21 21.79 40 24 40C26.21 40 28 38.21 28 36C28 33.79 26.21 32 24 32Z" fill="black"/>
</g>
<defs>
<clipPath id="clip0_135_16817">
<rect width="48" height="48" fill="white"/>
</clipPath>
</defs>
</svg>
