<svg width="48" height="48" viewBox="0 0 48 48" fill="none" xmlns="http://www.w3.org/2000/svg">
<g clip-path="url(#clip0_135_16814)">
<path d="M35.2995 12.7C32.4095 9.8 28.4195 8 23.9995 8C15.1595 8 8.01953 15.16 8.01953 24C8.01953 32.84 15.1595 40 23.9995 40C31.4495 40 37.6895 34.9 39.4595 28H35.2995C33.6495 32.66 29.2295 36 23.9995 36C17.3695 36 11.9995 30.63 11.9995 24C11.9995 17.37 17.3695 12 23.9995 12C27.3095 12 30.2795 13.38 32.4495 15.55L25.9995 22H39.9995V8L35.2995 12.7Z" fill="black"/>
</g>
<defs>
<clipPath id="clip0_135_16814">
<rect width="48" height="48" fill="white"/>
</clipPath>
</defs>
</svg>
